<svg xmlns="http://www.w3.org/2000/svg" width="867.855" height="694.901" viewBox="0 0 867.855 694.901">
  <g id="Group_14694" data-name="Group 14694" transform="translate(-575.646 -345)">
    <path id="Path_9979" data-name="Path 9979" d="M335.5,13.565C580.321-199.756,671,129.061,671,271.534s-72.54,329.9-191.713,329.9c-70.55,0-434.067-4.746-340.092-148.721S0,329.663,0,271.534C0,129.061,90.675,226.885,335.5,13.565Z" transform="translate(772.504 438.465)" fill="#c20850" opacity="0.04"/>
    <g id="undraw_screen_time_vkev" transform="translate(555.656 212.81)">
      <path id="Path_152" data-name="Path 152" d="M863.341,625.357l-35-32.67-16.6-15.307a13.464,13.464,0,0,1,2.566-21.653h0a13.465,13.465,0,0,1,18.905,6.377l5.458,12.524,33.9,35.162Z" transform="translate(-248.72 -204.634)" fill="#ffb9b9"/>
      <path id="Path_153" data-name="Path 153" d="M870.329,604.185l-12.289,20.47,49.889,30.6c43.982-31.614,52.689-41.9,41.913-92.262l-8.571-8.571-41.443,67.216Z" transform="translate(-251.134 -204.653)" fill="#ff007c"/>
      <path id="Path_154" data-name="Path 154" d="M793.452,546.87a3.021,3.021,0,0,0-3.782-.372l-23.1,15.047a3.039,3.039,0,0,0-.486,4.7l58.753,58.5a3.039,3.039,0,0,0,4.33-.042l19.254-19.928a3.046,3.046,0,0,0-.062-4.286Z" transform="translate(-246.707 -204.251)" fill="#3f3d56"/>
      <path id="Path_155" data-name="Path 155" d="M771.4,563.308l2.391-1.525a2.278,2.278,0,0,0,3.279,2.991l15.472-10.637a2.277,2.277,0,0,0-.6-4.048l1.232-.785a.829.829,0,0,1,1.035.116l52.048,51.149a.829.829,0,0,1-.021,1.186l-18.9,18.417a.829.829,0,0,1-1.154-.016l-54.917-55.564a.829.829,0,0,1,.14-1.285Z" transform="translate(-246.985 -204.403)" fill="#fff"/>
      <path id="Path_156" data-name="Path 156" d="M632.05,455.455,616.084,470.51l-37.978-37.522,19.274-12.546Z" transform="translate(-47.567 -70.583)" fill="#ff007c"/>
      <path id="Path_157" data-name="Path 157" d="M779.185,577.2a.553.553,0,0,0,0-.781l-3.321-3.321a.566.566,0,0,0-.781,0,.553.553,0,0,0,0,.781L778.4,577.2A.566.566,0,0,0,779.185,577.2Z" transform="translate(-247.171 -205.536)" fill="#e6e6e6"/>
      <path id="Path_158" data-name="Path 158" d="M785.06,582.293l-3.321-3.321a.553.553,0,1,0-.781.782l3.321,3.321a.553.553,0,0,0,.781-.782Z" transform="translate(-247.451 -205.815)" fill="#e6e6e6"/>
      <circle id="Ellipse_71" data-name="Ellipse 71" cx="3.73" cy="3.73" r="3.73" transform="translate(580.385 394.065)" fill="#ff007c"/>
      <path id="Path_159" data-name="Path 159" d="M785.652,609.139H496.394v-2.006H786.016Z" transform="translate(-43.672 -79.483)" fill="#3f3d56"/>
      <path id="Path_160" data-name="Path 160" d="M765.4,593.384V304.126h2.005V593.747Z" transform="translate(-56.496 -65.038)" fill="#3f3d56"/>
      <path id="Path_161" data-name="Path 161" d="M577.482,731.871l-18.948,5h0a23.641,23.641,0,0,1-30.13,11.162l-.414-.171a28.277,28.277,0,0,1-6.954-4.246c-7.958-6.451-21.217-9.781-38.8-10.564a5.1,5.1,0,0,1-3.56-5.128h0a5.1,5.1,0,0,1,4.429-4.784l94.807-12.366Z" transform="translate(-233.048 -212.107)" fill="#e6e6e6"/>
      <path id="Path_162" data-name="Path 162" d="M828.022,746.674c-49.57-7.95-94.728-20.817-132.591-41.816L577.908,733.7l.431-25.77L670.2,675.71a116.75,116.75,0,0,1,48.334-6.177L828.022,689.85Z" transform="translate(-237.779 -210.121)" fill="#2f2e41"/>
      <path id="Path_163" data-name="Path 163" d="M642.087,758.505h0a6.026,6.026,0,0,1,2.477-6.778l44.443-23.367,10.762-27.982L718.281,712l-5.166,20.664,1.222,8.551A18.909,18.909,0,0,1,695.618,762.8H647.86a6.028,6.028,0,0,1-5.773-4.3Z" transform="translate(-240.827 -211.611)" fill="#e6e6e6"/>
      <path id="Path_164" data-name="Path 164" d="M893.484,726.724c-53.671,66.729-90.6-5.952-126.994-83.084L722.58,715.1l-26.69-18.942,46.023-101.252a17.333,17.333,0,0,1,27.561-5.541l64.173,71.493L845.7,660Z" transform="translate(-243.403 -206.099)" fill="#2f2e41"/>
      <circle id="Ellipse_72" data-name="Ellipse 72" cx="31.856" cy="31.856" r="31.856" transform="translate(621.237 266.206)" fill="#ffb9b9"/>
      <path id="Path_165" data-name="Path 165" d="M946.531,557.469l-35.3,7.749a213.2,213.2,0,0,0-14.636-42.188l32.717-12.054A226.423,226.423,0,0,0,946.531,557.469Z" transform="translate(-252.972 -202.582)" fill="#ffb9b9"/>
      <path id="Path_166" data-name="Path 166" d="M903.393,732.765l-62.851-74.044,25.593-42.54c2.694-19.137,12.578-34.178,27.787-46.187l10.332-17.173,31-12.915h0a63.43,63.43,0,0,1,18.815,74.627Z" transform="translate(-250.299 -203.961)" fill="#ff007c"/>
      <path id="Path_167" data-name="Path 167" d="M846.523,653.171,808.64,623.9l-17.946-13.7a13.464,13.464,0,0,1,.54-21.8h0a13.464,13.464,0,0,1,19.416,4.591l6.6,11.962,37.022,31.856Z" transform="translate(-247.67 -206.16)" fill="#ffb9b9"/>
      <path id="Path_168" data-name="Path 168" d="M851.778,630.353l-10.332,21.524,52.52,25.829c40.851-35.568,63.629-69.677,48.215-118.814l-19.8,5.166-39.6,80.932Z" transform="translate(-250.342 -204.866)" fill="#ff007c"/>
      <circle id="Ellipse_73" data-name="Ellipse 73" cx="12.683" cy="12.683" r="12.683" transform="translate(681.767 235.981)" fill="#2f2e41"/>
      <path id="Path_169" data-name="Path 169" d="M936.162,444.4a12.673,12.673,0,0,1,12.677-11.855c-.262-.033-.522-.074-.789-.091a12.684,12.684,0,1,0-1.627,25.315c.267.017.53.01.793.011a12.673,12.673,0,0,1-11.055-13.38Z" transform="translate(-254.781 -198.837)" fill="#2f2e41"/>
      <path id="Path_170" data-name="Path 170" d="M932.526,450.51c-11.312-9.384-43.757,2.543-45.85,8.852-15.3,2.085-26.878,11.009-26.878,26.878h0c9.094,3.726,19.437,3.266,30.618,0,17.823,14.525,19.045,32.784,8.205,53.756l13.335.267L928.486,516.1l.79,24.5L959.844,540V504.879A73.42,73.42,0,0,0,952,471.242C947.242,461.988,939.85,456.585,932.526,450.51Z" transform="translate(-251.217 -199.534)" fill="#2f2e41"/>
      <ellipse id="Ellipse_74" data-name="Ellipse 74" cx="6.065" cy="8.491" rx="6.065" ry="8.491" transform="translate(646.78 296.037)" fill="#ffb8b8"/>
      <path id="Path_176" data-name="Path 176" d="M241.743,325.951" transform="translate(-221.754 -193.761)" fill="none" stroke="#fff" stroke-miterlimit="10" stroke-width="2" stroke-dasharray="12"/>
    </g>
  </g>
</svg>
